<svg xmlns="http://www.w3.org/2000/svg" xmlns:xlink="http://www.w3.org/1999/xlink" width="3000" zoomAndPan="magnify" viewBox="0 0 2250 194.87999" height="250" preserveAspectRatio="xMidYMid meet" version="1.2"><defs/><g id="d18bd2defa"><g style="fill:#ff4949;fill-opacity:1;"><g transform="translate(-0.136358, 177.491368)"><path style="stroke:none" d="M 222.84375 -122.9375 L 145.28125 -122.9375 L 145.28125 0 L 83.328125 0 L 83.328125 -122.9375 L 5.515625 -122.9375 L 5.515625 -171.453125 L 222.84375 -171.453125 Z M 222.84375 -122.9375 "/></g></g><g style="fill:#ff4949;fill-opacity:1;"><g transform="translate(226.53848, 177.491368)"><path style="stroke:none" d="M 240.125 0 L 168.328125 0 L 137.109375 -51.625 L 73.953125 -51.625 L 73.953125 0 L 12 0 L 12 -171.453125 L 166.640625 -171.453125 C 191.296875 -171.453125 208.984375 -166.726562 219.703125 -157.28125 C 230.429688 -147.832031 235.796875 -133.425781 235.796875 -114.0625 C 235.796875 -99.332031 232.59375 -88.203125 226.1875 -80.671875 C 219.789062 -73.148438 210.671875 -68.03125 198.828125 -65.3125 L 198.828125 -63.15625 Z M 148.15625 -92.6875 C 154.71875 -92.6875 159.519531 -94.003906 162.5625 -96.640625 C 165.601562 -99.285156 167.125 -103.410156 167.125 -109.015625 C 167.125 -114.617188 165.601562 -118.738281 162.5625 -121.375 C 159.519531 -124.019531 154.71875 -125.34375 148.15625 -125.34375 L 73.953125 -125.34375 L 73.953125 -92.6875 Z M 148.15625 -92.6875 "/></g></g><g style="fill:#ff4949;fill-opacity:1;"><g transform="translate(468.100927, 177.491368)"><path style="stroke:none" d="M 12 0 L 12 -171.453125 L 73.953125 -171.453125 L 73.953125 0 Z M 12 0 "/></g></g><g style="fill:#ff4949;fill-opacity:1;"><g transform="translate(552.143514, 177.491368)"><path style="stroke:none" d="M 234.359375 -171.453125 L 234.359375 0 L 162.328125 0 L 72.28125 -102.53125 L 70.84375 -102.53125 L 70.84375 0 L 12 0 L 12 -171.453125 L 85 -171.453125 L 173.84375 -70.359375 L 175.53125 -70.359375 L 175.53125 -171.453125 Z M 234.359375 -171.453125 "/></g></g><g style="fill:#ff4949;fill-opacity:1;"><g transform="translate(796.587359, 177.491368)"><path style="stroke:none" d="M 12 0 L 12 -171.453125 L 73.953125 -171.453125 L 73.953125 0 Z M 12 0 "/></g></g><g style="fill:#ff4949;fill-opacity:1;"><g transform="translate(880.6299, 177.491368)"><path style="stroke:none" d="M 222.84375 -122.9375 L 145.28125 -122.9375 L 145.28125 0 L 83.328125 0 L 83.328125 -122.9375 L 5.515625 -122.9375 L 5.515625 -171.453125 L 222.84375 -171.453125 Z M 222.84375 -122.9375 "/></g></g><g style="fill:#ff4949;fill-opacity:1;"><g transform="translate(1108.985668, 177.491368)"><path style="stroke:none" d="M 150.078125 -54.515625 L 150.078125 0 L 87.890625 0 L 87.890625 -54.265625 L -2.15625 -171.453125 L 72.765625 -171.453125 L 119.109375 -105.65625 L 165.203125 -171.453125 L 239.890625 -171.453125 Z M 150.078125 -54.515625 "/></g></g><g style="fill:#ff4949;fill-opacity:1;"><g transform="translate(1405.826109, 177.491368)"><path style="stroke:none" d="M 131.59375 -177.453125 C 172.726562 -177.453125 203.738281 -169.925781 224.625 -154.875 C 245.519531 -139.832031 255.96875 -116.78125 255.96875 -85.71875 C 255.96875 -54.664062 245.519531 -31.613281 224.625 -16.5625 C 203.738281 -1.519531 172.726562 6 131.59375 6 C 90.601562 6 59.660156 -1.519531 38.765625 -16.5625 C 17.878906 -31.613281 7.4375 -54.664062 7.4375 -85.71875 C 7.4375 -116.78125 17.878906 -139.832031 38.765625 -154.875 C 59.660156 -169.925781 90.601562 -177.453125 131.59375 -177.453125 Z M 131.59375 -40.578125 C 150.320312 -40.578125 164.40625 -44.457031 173.84375 -52.21875 C 183.289062 -59.988281 188.015625 -71.15625 188.015625 -85.71875 C 188.015625 -100.289062 183.289062 -111.457031 173.84375 -119.21875 C 164.40625 -126.988281 150.320312 -130.875 131.59375 -130.875 C 112.863281 -130.875 98.816406 -126.988281 89.453125 -119.21875 C 80.085938 -111.457031 75.40625 -100.289062 75.40625 -85.71875 C 75.40625 -71.15625 80.085938 -59.988281 89.453125 -52.21875 C 98.816406 -44.457031 112.863281 -40.578125 131.59375 -40.578125 Z M 131.59375 -40.578125 "/></g></g><g style="fill:#ff4949;fill-opacity:1;"><g transform="translate(1667.558746, 177.491368)"><path style="stroke:none" d="M 234.359375 -171.453125 L 234.359375 0 L 162.328125 0 L 72.28125 -102.53125 L 70.84375 -102.53125 L 70.84375 0 L 12 0 L 12 -171.453125 L 85 -171.453125 L 173.84375 -70.359375 L 175.53125 -70.359375 L 175.53125 -171.453125 Z M 234.359375 -171.453125 "/></g></g><g style="fill:#ff4949;fill-opacity:1;"><g transform="translate(1912.002591, 177.491368)"><path style="stroke:none" d="M 73.953125 -106.375 L 200.984375 -106.375 L 200.984375 -69.15625 L 73.953125 -69.15625 L 73.953125 -41.546875 L 209.15625 -41.546875 L 209.15625 0 L 12 0 L 12 -171.453125 L 206.75 -171.453125 L 206.75 -130.875 L 73.953125 -130.875 Z M 73.953125 -106.375 "/></g></g><g style="fill:#ff4949;fill-opacity:1;"><g transform="translate(1292.104513, 177.491368)"><path style="stroke:none" d="M 126.78125 -171.453125 L 48.265625 0 L 4.328125 0 L 82.84375 -171.453125 Z M 126.78125 -171.453125 "/></g></g><g style="fill:#ff4949;fill-opacity:1;"><g transform="translate(2128.247257, 45.907453)"><path style="stroke:none" d="M 51.96875 -28.671875 L 33.875 -28.671875 L 33.875 0 L 19.4375 0 L 19.4375 -28.671875 L 1.28125 -28.671875 L 1.28125 -39.984375 L 51.96875 -39.984375 Z M 51.96875 -28.671875 "/></g></g><g style="fill:#ff4949;fill-opacity:1;"><g transform="translate(2181.115538, 45.907453)"><path style="stroke:none" d="M 65.578125 0 L 51.125 0 L 51.125 -27.21875 L 50.796875 -27.21875 L 39.375 0 L 28.453125 0 L 16.859375 -27.546875 L 16.46875 -27.546875 L 16.46875 0 L 2.796875 0 L 2.796875 -39.984375 L 24.96875 -39.984375 L 33.765625 -17.53125 L 34.15625 -17.53125 L 42.78125 -39.984375 L 65.578125 -39.984375 Z M 65.578125 0 "/></g></g></g></svg>